<svg width="48" height="48" viewBox="0 0 48 48" fill="none" xmlns="http://www.w3.org/2000/svg">
<rect width="48" height="48" rx="24" fill="#DDE4E4"/>
<rect x="4" y="4" width="40" height="40" rx="20" fill="white"/>
<path d="M29.6975 23.4919L27.2854 25.6495L28.0203 28.8761C28.0608 29.0513 28.0504 29.235 27.9903 29.404C27.9302 29.573 27.8231 29.7197 27.6826 29.8257C27.542 29.9316 27.3744 29.992 27.2007 29.9993C27.0271 30.0065 26.8553 29.9602 26.707 29.8663L24.0001 28.1393L21.2916 29.8663C21.1433 29.9597 20.9717 30.0055 20.7984 29.998C20.6251 29.9905 20.4577 29.93 20.3175 29.8242C20.1773 29.7183 20.0704 29.5718 20.0103 29.4031C19.9502 29.2344 19.9397 29.051 19.9799 28.8761L20.7175 25.6495L18.3054 23.4919C18.1742 23.3744 18.0793 23.2194 18.0326 23.0464C17.9859 22.8733 17.9894 22.6898 18.0427 22.5188C18.096 22.3478 18.1967 22.1968 18.3323 22.0848C18.4679 21.9728 18.6322 21.9046 18.8049 21.8889L21.9675 21.6244L23.1875 18.5639C23.2535 18.3971 23.3659 18.2544 23.5104 18.154C23.6548 18.0536 23.8248 18 23.9988 18C24.1727 18 24.3427 18.0536 24.4872 18.154C24.6316 18.2544 24.744 18.3971 24.81 18.5639L26.0295 21.6244L29.1921 21.8889C29.3651 21.9041 29.53 21.9718 29.666 22.0837C29.8021 22.1956 29.9033 22.3466 29.9569 22.5178C30.0105 22.689 30.0142 22.8728 29.9675 23.0462C29.9208 23.2196 29.8258 23.3748 29.6943 23.4925L29.6975 23.4919Z" fill="#29B1B5"/>
</svg>
