<svg width="48" height="48" viewBox="0 0 48 48" fill="none" xmlns="http://www.w3.org/2000/svg">
<rect width="48" height="48" rx="24" fill="#58C25C"/>
<rect x="4" y="4" width="40" height="40" rx="20" fill="#58C25C"/>
<path d="M34.5518 20.1711L22.3783 31.5838C22.0938 31.8503 21.7081 32 21.306 32C20.9038 32 20.5182 31.8503 20.2337 31.5838L13.4435 25.1842C13.1595 24.9175 13 24.5561 13 24.1793C13 23.8025 13.1595 23.4411 13.4435 23.1745L15.3397 21.3968C15.624 21.1314 16.0088 20.9824 16.4101 20.9824C16.8113 20.9824 17.1961 21.1314 17.4804 21.3968L21.3439 24.9095L30.5176 16.4149C30.802 16.1492 31.1871 16 31.5885 16C31.99 16 32.375 16.1492 32.6594 16.4149L34.5508 18.1517C34.6931 18.2838 34.806 18.4411 34.8831 18.6143C34.9602 18.7876 34.9999 18.9735 35 19.1612C35.0001 19.3489 34.9605 19.5348 34.8836 19.7082C34.8067 19.8815 34.6939 20.0388 34.5518 20.1711Z" fill="white"/>
</svg>
